[img]http://img593.imageshack.us/img593/7137/posess.jpg[/img]
[code]
The.Possession.2012.DVDRIP.XVID.AC3-26K
 
http://www.imdb.com/title/tt0431021/

Plot:
A young girl buys an antique box at a yard sale, unaware that inside the collectible lives a malicious ancient 

spirit. The girl's father teams with his ex-wife to find a way to end the curse upon their child.

Sources - Audio-PSIG....Thanks :P
          VIDEO-RUSSIAN.....Thanks :P
          Subs-ENGLISH.SRT IN TORRENT....
Video
ID                                       : 0
Format                                   : MPEG-4 Visual
Format profile                           : Advanced Simple@L5
Format settings, BVOP                    : 2
Format settings, QPel                    : No
Format settings, GMC                     : No warppoints
Format settings, Matrix                  : Default (H.263)
Muxing mode                              : Packed bitstream
Codec ID                                 : XVID
Codec ID/Hint                            : XviD
Duration                                 : 1h 27mn
Bit rate                                 : 2 162 Kbps
Width                                    : 720 pixels
Height                                   : 304 pixels
Display aspect ratio                     : 2.35:1
Frame rate                               : 23.976 fps
Color space                              : YUV
Chroma subsampling                       : 4:2:0
Bit depth                                : 8 bits
Scan type                                : Progressive
Compression mode                         : Lossy
Bits/(Pixel*Frame)                       : 0.393
Stream size                              : 1.25 GiB (86%)
Writing library                          : XviD 64

Audio
ID                                       : 1
Format                                   : AC-3
Format/Info                              : Audio Coding 3
Codec ID                                 : 2000
Duration                                 : 1h 26mn
Bit rate mode                            : Constant
Bit rate                                 : 320 Kbps
Channel(s)                               : 2 channels
Sampling rate                            : 48.0 KHz
Compression mode                         : Lossy
Stream size                              : 199 MiB (13%)
Alignment                                : Aligned on interleaves
Interleave, duration                     : 5220012 ms (125 155.00 video frames)

Notes -
tweaked the russian video... then converted the mp3 to ac3 and muxed it over.. and here it is  was waiting for 5.1 

since it did not show up-> enjoy

[/code]

Screens:
[IMG]http://i.imgur.com/F3qYw.png[/IMG]
[IMG]http://i.imgur.com/RDJNl.png[/IMG]
[IMG]http://i.imgur.com/BPdxC.png[/IMG]
[img]http://img145.imageshack.us/img145/6473/vlcsnap2012122921h11m05.png[/img]
[img]http://img195.imageshack.us/img195/38/vlcsnap2012122921h11m11.png[/img]
[img]http://img189.imageshack.us/img189/9793/vlcsnap2012122921h11m26.png[/img]
[img]http://img87.imageshack.us/img87/7340/vlcsnap2012122921h12m39.png[/img]

Greetz:
XtremeEncode|CM8|RX|VISION|HDSCENE|xTriLL|DTRG|CRYS|BIDA|RX|REFILL|INSPiRAL|AXED|HOPE|Anonymous|NOIR|Blackjesus|

Gabroo Punjab Deh|UNiQUE|DQ1|RESiSTANCE|HS||LEGION|STN|BOBBYBLUE|LIFT

To all the people who have helped me  you know who you are

Anything to offer email us @: 26k@hushmail.me
<<bullying has to be stopped now!>>